<svg xmlns="http://www.w3.org/2000/svg" viewBox="0 0 600 600" preserveAspectRatio="xMidYMid meet" role="img" aria-label="QR code linking to arXiv:2411.09182"><rect x="0" y="0" width="600" height="600" fill="#f5efde"/><g fill="#2b211a" shape-rendering="crispEdges"><rect x="36.36" y="36.36" width="127.27" height="18.18"/><rect x="200.0" y="36.36" width="18.18" height="18.18"/><rect x="309.09" y="36.36" width="54.55" height="18.18"/><rect x="400.0" y="36.36" width="18.18" height="18.18"/><rect x="436.36" y="36.36" width="127.27" height="18.18"/><rect x="36.36" y="54.55" width="18.18" height="18.18"/><rect x="145.45" y="54.55" width="18.18" height="18.18"/><rect x="181.82" y="54.55" width="127.27" height="18.18"/><rect x="327.27" y="54.55" width="54.55" height="18.18"/><rect x="400.0" y="54.55" width="18.18" height="18.18"/><rect x="436.36" y="54.55" width="18.18" height="18.18"/><rect x="545.45" y="54.55" width="18.18" height="18.18"/><rect x="36.36" y="72.73" width="18.18" height="18.18"/><rect x="72.73" y="72.73" width="54.55" height="18.18"/><rect x="145.45" y="72.73" width="18.18" height="18.18"/><rect x="181.82" y="72.73" width="72.73" height="18.18"/><rect x="272.73" y="72.73" width="18.18" height="18.18"/><rect x="309.09" y="72.73" width="18.18" height="18.18"/><rect x="363.64" y="72.73" width="54.55" height="18.18"/><rect x="436.36" y="72.73" width="18.18" height="18.18"/><rect x="472.73" y="72.73" width="54.55" height="18.18"/><rect x="545.45" y="72.73" width="18.18" height="18.18"/><rect x="36.36" y="90.91" width="18.18" height="18.18"/><rect x="72.73" y="90.91" width="54.55" height="18.18"/><rect x="145.45" y="90.91" width="18.18" height="18.18"/><rect x="181.82" y="90.91" width="18.18" height="18.18"/><rect x="218.18" y="90.91" width="18.18" height="18.18"/><rect x="327.27" y="90.91" width="90.91" height="18.18"/><rect x="436.36" y="90.91" width="18.18" height="18.18"/><rect x="472.73" y="90.91" width="54.55" height="18.18"/><rect x="545.45" y="90.91" width="18.18" height="18.18"/><rect x="36.36" y="109.09" width="18.18" height="18.18"/><rect x="72.73" y="109.09" width="54.55" height="18.18"/><rect x="145.45" y="109.09" width="18.18" height="18.18"/><rect x="200.0" y="109.09" width="54.55" height="18.18"/><rect x="309.09" y="109.09" width="36.36" height="18.18"/><rect x="381.82" y="109.09" width="18.18" height="18.18"/><rect x="436.36" y="109.09" width="18.18" height="18.18"/><rect x="472.73" y="109.09" width="54.55" height="18.18"/><rect x="545.45" y="109.09" width="18.18" height="18.18"/><rect x="36.36" y="127.27" width="18.18" height="18.18"/><rect x="145.45" y="127.27" width="18.18" height="18.18"/><rect x="200.0" y="127.27" width="18.18" height="18.18"/><rect x="236.36" y="127.27" width="18.18" height="18.18"/><rect x="309.09" y="127.27" width="18.18" height="18.18"/><rect x="400.0" y="127.27" width="18.18" height="18.18"/><rect x="436.36" y="127.27" width="18.18" height="18.18"/><rect x="545.45" y="127.27" width="18.18" height="18.18"/><rect x="36.36" y="145.45" width="127.27" height="18.18"/><rect x="181.82" y="145.45" width="18.18" height="18.18"/><rect x="218.18" y="145.45" width="18.18" height="18.18"/><rect x="254.55" y="145.45" width="18.18" height="18.18"/><rect x="290.91" y="145.45" width="18.18" height="18.18"/><rect x="327.27" y="145.45" width="18.18" height="18.18"/><rect x="363.64" y="145.45" width="18.18" height="18.18"/><rect x="400.0" y="145.45" width="18.18" height="18.18"/><rect x="436.36" y="145.45" width="127.27" height="18.18"/><rect x="181.82" y="163.64" width="90.91" height="18.18"/><rect x="290.91" y="163.64" width="54.55" height="18.18"/><rect x="363.64" y="163.64" width="36.36" height="18.18"/><rect x="36.36" y="181.82" width="18.18" height="18.18"/><rect x="145.45" y="181.82" width="18.18" height="18.18"/><rect x="181.82" y="181.82" width="90.91" height="18.18"/><rect x="327.27" y="181.82" width="54.55" height="18.18"/><rect x="400.0" y="181.82" width="54.55" height="18.18"/><rect x="490.91" y="181.82" width="54.55" height="18.18"/><rect x="72.73" y="200.0" width="18.18" height="18.18"/><rect x="109.09" y="200.0" width="18.18" height="18.18"/><rect x="163.64" y="200.0" width="18.18" height="18.18"/><rect x="200.0" y="200.0" width="18.18" height="18.18"/><rect x="254.55" y="200.0" width="36.36" height="18.18"/><rect x="327.27" y="200.0" width="18.18" height="18.18"/><rect x="381.82" y="200.0" width="18.18" height="18.18"/><rect x="418.18" y="200.0" width="18.18" height="18.18"/><rect x="454.55" y="200.0" width="36.36" height="18.18"/><rect x="509.09" y="200.0" width="36.36" height="18.18"/><rect x="54.55" y="218.18" width="72.73" height="18.18"/><rect x="145.45" y="218.18" width="18.18" height="18.18"/><rect x="200.0" y="218.18" width="36.36" height="18.18"/><rect x="254.55" y="218.18" width="90.91" height="18.18"/><rect x="363.64" y="218.18" width="18.18" height="18.18"/><rect x="454.55" y="218.18" width="36.36" height="18.18"/><rect x="54.55" y="236.36" width="18.18" height="18.18"/><rect x="90.91" y="236.36" width="18.18" height="18.18"/><rect x="181.82" y="236.36" width="36.36" height="18.18"/><rect x="236.36" y="236.36" width="18.18" height="18.18"/><rect x="272.73" y="236.36" width="18.18" height="18.18"/><rect x="381.82" y="236.36" width="18.18" height="18.18"/><rect x="436.36" y="236.36" width="18.18" height="18.18"/><rect x="490.91" y="236.36" width="18.18" height="18.18"/><rect x="36.36" y="254.55" width="18.18" height="18.18"/><rect x="72.73" y="254.55" width="36.36" height="18.18"/><rect x="127.27" y="254.55" width="54.55" height="18.18"/><rect x="200.0" y="254.55" width="90.91" height="18.18"/><rect x="309.09" y="254.55" width="36.36" height="18.18"/><rect x="363.64" y="254.55" width="109.09" height="18.18"/><rect x="545.45" y="254.55" width="18.18" height="18.18"/><rect x="54.55" y="272.73" width="18.18" height="18.18"/><rect x="90.91" y="272.73" width="18.18" height="18.18"/><rect x="127.27" y="272.73" width="18.18" height="18.18"/><rect x="163.64" y="272.73" width="90.91" height="18.18"/><rect x="327.27" y="272.73" width="18.18" height="18.18"/><rect x="381.82" y="272.73" width="36.36" height="18.18"/><rect x="436.36" y="272.73" width="54.55" height="18.18"/><rect x="527.27" y="272.73" width="36.36" height="18.18"/><rect x="36.36" y="290.91" width="18.18" height="18.18"/><rect x="72.73" y="290.91" width="54.55" height="18.18"/><rect x="145.45" y="290.91" width="36.36" height="18.18"/><rect x="200.0" y="290.91" width="72.73" height="18.18"/><rect x="363.64" y="290.91" width="18.18" height="18.18"/><rect x="400.0" y="290.91" width="18.18" height="18.18"/><rect x="436.36" y="290.91" width="18.18" height="18.18"/><rect x="472.73" y="290.91" width="54.55" height="18.18"/><rect x="54.55" y="309.09" width="18.18" height="18.18"/><rect x="90.91" y="309.09" width="18.18" height="18.18"/><rect x="163.64" y="309.09" width="90.91" height="18.18"/><rect x="309.09" y="309.09" width="18.18" height="18.18"/><rect x="400.0" y="309.09" width="18.18" height="18.18"/><rect x="509.09" y="309.09" width="18.18" height="18.18"/><rect x="545.45" y="309.09" width="18.18" height="18.18"/><rect x="72.73" y="327.27" width="36.36" height="18.18"/><rect x="127.27" y="327.27" width="36.36" height="18.18"/><rect x="181.82" y="327.27" width="18.18" height="18.18"/><rect x="218.18" y="327.27" width="18.18" height="18.18"/><rect x="345.45" y="327.27" width="36.36" height="18.18"/><rect x="454.55" y="327.27" width="18.18" height="18.18"/><rect x="490.91" y="327.27" width="36.36" height="18.18"/><rect x="36.36" y="345.45" width="36.36" height="18.18"/><rect x="90.91" y="345.45" width="18.18" height="18.18"/><rect x="127.27" y="345.45" width="18.18" height="18.18"/><rect x="200.0" y="345.45" width="18.18" height="18.18"/><rect x="254.55" y="345.45" width="54.55" height="18.18"/><rect x="345.45" y="345.45" width="72.73" height="18.18"/><rect x="436.36" y="345.45" width="54.55" height="18.18"/><rect x="509.09" y="345.45" width="54.55" height="18.18"/><rect x="36.36" y="363.64" width="90.91" height="18.18"/><rect x="145.45" y="363.64" width="36.36" height="18.18"/><rect x="200.0" y="363.64" width="18.18" height="18.18"/><rect x="309.09" y="363.64" width="36.36" height="18.18"/><rect x="381.82" y="363.64" width="18.18" height="18.18"/><rect x="454.55" y="363.64" width="18.18" height="18.18"/><rect x="490.91" y="363.64" width="18.18" height="18.18"/><rect x="545.45" y="363.64" width="18.18" height="18.18"/><rect x="36.36" y="381.82" width="18.18" height="18.18"/><rect x="72.73" y="381.82" width="18.18" height="18.18"/><rect x="109.09" y="381.82" width="36.36" height="18.18"/><rect x="163.64" y="381.82" width="36.36" height="18.18"/><rect x="218.18" y="381.82" width="36.36" height="18.18"/><rect x="272.73" y="381.82" width="18.18" height="18.18"/><rect x="309.09" y="381.82" width="18.18" height="18.18"/><rect x="363.64" y="381.82" width="90.91" height="18.18"/><rect x="472.73" y="381.82" width="18.18" height="18.18"/><rect x="36.36" y="400.0" width="18.18" height="18.18"/><rect x="109.09" y="400.0" width="90.91" height="18.18"/><rect x="254.55" y="400.0" width="18.18" height="18.18"/><rect x="290.91" y="400.0" width="200.0" height="18.18"/><rect x="509.09" y="400.0" width="54.55" height="18.18"/><rect x="181.82" y="418.18" width="36.36" height="18.18"/><rect x="236.36" y="418.18" width="36.36" height="18.18"/><rect x="290.91" y="418.18" width="54.55" height="18.18"/><rect x="400.0" y="418.18" width="18.18" height="18.18"/><rect x="472.73" y="418.18" width="36.36" height="18.18"/><rect x="36.36" y="436.36" width="127.27" height="18.18"/><rect x="200.0" y="436.36" width="36.36" height="18.18"/><rect x="254.55" y="436.36" width="18.18" height="18.18"/><rect x="309.09" y="436.36" width="18.18" height="18.18"/><rect x="363.64" y="436.36" width="54.55" height="18.18"/><rect x="436.36" y="436.36" width="18.18" height="18.18"/><rect x="472.73" y="436.36" width="54.55" height="18.18"/><rect x="36.36" y="454.55" width="18.18" height="18.18"/><rect x="145.45" y="454.55" width="18.18" height="18.18"/><rect x="200.0" y="454.55" width="18.18" height="18.18"/><rect x="290.91" y="454.55" width="18.18" height="18.18"/><rect x="363.64" y="454.55" width="18.18" height="18.18"/><rect x="400.0" y="454.55" width="18.18" height="18.18"/><rect x="472.73" y="454.55" width="18.18" height="18.18"/><rect x="36.36" y="472.73" width="18.18" height="18.18"/><rect x="72.73" y="472.73" width="54.55" height="18.18"/><rect x="145.45" y="472.73" width="18.18" height="18.18"/><rect x="218.18" y="472.73" width="36.36" height="18.18"/><rect x="272.73" y="472.73" width="36.36" height="18.18"/><rect x="363.64" y="472.73" width="145.45" height="18.18"/><rect x="527.27" y="472.73" width="36.36" height="18.18"/><rect x="36.36" y="490.91" width="18.18" height="18.18"/><rect x="72.73" y="490.91" width="54.55" height="18.18"/><rect x="145.45" y="490.91" width="18.18" height="18.18"/><rect x="218.18" y="490.91" width="36.36" height="18.18"/><rect x="290.91" y="490.91" width="36.36" height="18.18"/><rect x="345.45" y="490.91" width="18.18" height="18.18"/><rect x="381.82" y="490.91" width="54.55" height="18.18"/><rect x="454.55" y="490.91" width="18.18" height="18.18"/><rect x="490.91" y="490.91" width="36.36" height="18.18"/><rect x="545.45" y="490.91" width="18.18" height="18.18"/><rect x="36.36" y="509.09" width="18.18" height="18.18"/><rect x="72.73" y="509.09" width="54.55" height="18.18"/><rect x="145.45" y="509.09" width="18.18" height="18.18"/><rect x="218.18" y="509.09" width="18.18" height="18.18"/><rect x="272.73" y="509.09" width="72.73" height="18.18"/><rect x="363.64" y="509.09" width="36.36" height="18.18"/><rect x="436.36" y="509.09" width="109.09" height="18.18"/><rect x="36.36" y="527.27" width="18.18" height="18.18"/><rect x="145.45" y="527.27" width="18.18" height="18.18"/><rect x="254.55" y="527.27" width="18.18" height="18.18"/><rect x="327.27" y="527.27" width="18.18" height="18.18"/><rect x="436.36" y="527.27" width="90.91" height="18.18"/><rect x="545.45" y="527.27" width="18.18" height="18.18"/><rect x="36.36" y="545.45" width="127.27" height="18.18"/><rect x="181.82" y="545.45" width="36.36" height="18.18"/><rect x="236.36" y="545.45" width="18.18" height="18.18"/><rect x="309.09" y="545.45" width="90.91" height="18.18"/><rect x="418.18" y="545.45" width="36.36" height="18.18"/><rect x="472.73" y="545.45" width="18.18" height="18.18"/><rect x="509.09" y="545.45" width="18.18" height="18.18"/></g></svg>