<svg xmlns="http://www.w3.org/2000/svg" viewBox="0 0 720 400" preserveAspectRatio="xMidYMid meet">

  <!-- inner frame rule -->
  <rect x="36" y="36" width="648" height="328" fill="none" stroke="#c8b894" stroke-width="0.6"/>

  <!-- title masthead -->
  <text x="360" y="68" fill="#6c1d1a" font-family="Alegreya SC, EB Garamond, Georgia, serif" font-weight="500" font-size="16" letter-spacing="4" text-anchor="middle">METRIC TREES</text>

  <!-- italic deck -->
  <text x="360" y="92" fill="#57473a" font-family="EB Garamond, Georgia, serif" font-style="italic" font-size="13" text-anchor="middle">— coefficient one when the gaps avoid the leaves — but the fan can betray —</text>

  <!-- horizontal hairline -->
  <line x1="120" y1="104" x2="600" y2="104" stroke="#c8b894" stroke-width="0.5"/>

  <!-- ART (left): a metric tree T with a sample X reaching the leaves -->
  <g stroke="#2b211a" fill="none" stroke-width="2.4" stroke-linecap="round" stroke-linejoin="round" opacity="0.85">
    <line x1="235" y1="318" x2="235" y2="262"/>
    <line x1="235" y1="262" x2="188" y2="212"/>
    <line x1="235" y1="262" x2="285" y2="212"/>
    <line x1="188" y1="212" x2="162" y2="162"/>
    <line x1="188" y1="212" x2="212" y2="158"/>
    <line x1="285" y1="212" x2="268" y2="158"/>
    <line x1="285" y1="212" x2="318" y2="166"/>
  </g>
  <!-- sample X: dots on the tree, including the leaf tips (the clean case) -->
  <g fill="#6c1d1a" stroke="#f5efde" stroke-width="1.2">
    <circle cx="235" cy="318" r="5"/>
    <circle cx="235" cy="262" r="5"/>
    <circle cx="188" cy="212" r="5"/>
    <circle cx="285" cy="212" r="5"/>
    <circle cx="162" cy="162" r="5"/>
    <circle cx="212" cy="158" r="5"/>
    <circle cx="268" cy="158" r="5"/>
    <circle cx="318" cy="166" r="5"/>
  </g>
  <text x="240" y="344" fill="#57473a" font-family="Alegreya SC, EB Garamond, Georgia, serif" font-size="9.5" letter-spacing="2" text-anchor="middle">METRIC TREE T + SAMPLE X</text>

  <!-- ART (right): the "fan" of intervals — leaves under-sampled -->
  <g stroke="#2b211a" fill="none" stroke-width="2" stroke-linecap="round" opacity="0.82">
    <line x1="545" y1="300" x2="472" y2="186"/>
    <line x1="545" y1="300" x2="508" y2="172"/>
    <line x1="545" y1="300" x2="545" y2="166"/>
    <line x1="545" y1="300" x2="582" y2="172"/>
    <line x1="545" y1="300" x2="618" y2="186"/>
  </g>
  <circle cx="545" cy="300" r="4.5" fill="#6c1d1a" stroke="#f5efde" stroke-width="1.2"/>
  <!-- leaf tips missed: hollow oxblood rings -->
  <g fill="none" stroke="#6c1d1a" stroke-width="1.4">
    <circle cx="472" cy="186" r="4.5"/>
    <circle cx="508" cy="172" r="4.5"/>
    <circle cx="545" cy="166" r="4.5"/>
    <circle cx="582" cy="172" r="4.5"/>
    <circle cx="618" cy="186" r="4.5"/>
  </g>
  <text x="545" y="332" fill="#6c1d1a" font-family="EB Garamond, Georgia, serif" font-style="italic" font-size="12" text-anchor="middle">the fan: leaves missed</text>

  <!-- corner fleurons -->
  <g fill="#c8b894" stroke="none">
    <g transform="translate(52, 52) scale(0.9)">
      <path d="M 0 -8 Q 5 -3 0 0 Q -5 -3 0 -8 Z"/>
      <path d="M 0 8  Q 5 3  0 0 Q -5 3  0 8  Z"/>
      <path d="M -8 0 Q -3 -5 0 0 Q -3 5 -8 0 Z"/>
      <path d="M 8 0  Q 3 -5  0 0 Q 3 5  8 0  Z"/>
      <circle cx="0" cy="0" r="2.0"/>
    </g>
    <g transform="translate(668, 52) scale(0.9)">
      <path d="M 0 -8 Q 5 -3 0 0 Q -5 -3 0 -8 Z"/>
      <path d="M 0 8  Q 5 3  0 0 Q -5 3  0 8  Z"/>
      <path d="M -8 0 Q -3 -5 0 0 Q -3 5 -8 0 Z"/>
      <path d="M 8 0  Q 3 -5  0 0 Q 3 5  8 0  Z"/>
      <circle cx="0" cy="0" r="2.0"/>
    </g>
    <g transform="translate(52, 348) scale(0.9)">
      <path d="M 0 -8 Q 5 -3 0 0 Q -5 -3 0 -8 Z"/>
      <path d="M 0 8  Q 5 3  0 0 Q -5 3  0 8  Z"/>
      <path d="M -8 0 Q -3 -5 0 0 Q -3 5 -8 0 Z"/>
      <path d="M 8 0  Q 3 -5  0 0 Q 3 5  8 0  Z"/>
      <circle cx="0" cy="0" r="2.0"/>
    </g>
    <g transform="translate(668, 348) scale(0.9)">
      <path d="M 0 -8 Q 5 -3 0 0 Q -5 -3 0 -8 Z"/>
      <path d="M 0 8  Q 5 3  0 0 Q -5 3  0 8  Z"/>
      <path d="M -8 0 Q -3 -5 0 0 Q -3 5 -8 0 Z"/>
      <path d="M 8 0  Q 3 -5  0 0 Q 3 5  8 0  Z"/>
      <circle cx="0" cy="0" r="2.0"/>
    </g>
  </g>

  <!-- caption stripe -->
  <text x="360" y="356" fill="#57473a" font-family="Alegreya SC, EB Garamond, Georgia, serif" font-size="11" letter-spacing="3" text-anchor="middle">— EQUALITY WHEN THE BIG GAPS AVOID THE LEAVES —</text>
</svg>
